<mxfile host="app.diagrams.net" agent="Mozilla/5.0 (Macintosh; Intel Mac OS X 10_15_7) AppleWebKit/537.36 (KHTML, like Gecko) Chrome/131.0.0.0 Safari/537.36" version="26.0.11">
  <diagram name="Page-1" id="ztmSVutk6BbXFrTuqK4i">
    <mxGraphModel dx="2314" dy="1121" grid="1" gridSize="10" guides="1" tooltips="1" connect="1" arrows="1" fold="1" page="1" pageScale="1" pageWidth="827" pageHeight="1169" math="0" shadow="0">
      <root>
        <mxCell id="0" />
        <mxCell id="1" parent="0" />
        <mxCell id="7O1hy9oFJUi7Iq8X8UC_-20" value="开发者代码" style="shape=umlLifeline;perimeter=lifelinePerimeter;whiteSpace=wrap;container=1;dropTarget=0;collapsible=0;recursiveResize=0;outlineConnect=0;portConstraint=eastwest;newEdgeStyle={&quot;edgeStyle&quot;:&quot;elbowEdgeStyle&quot;,&quot;elbow&quot;:&quot;vertical&quot;,&quot;curved&quot;:0,&quot;rounded&quot;:0};size=65;" vertex="1" parent="1">
          <mxGeometry x="20" y="20" width="150" height="2755" as="geometry" />
        </mxCell>
        <mxCell id="7O1hy9oFJUi7Iq8X8UC_-21" value="构建系统" style="shape=umlLifeline;perimeter=lifelinePerimeter;whiteSpace=wrap;container=1;dropTarget=0;collapsible=0;recursiveResize=0;outlineConnect=0;portConstraint=eastwest;newEdgeStyle={&quot;edgeStyle&quot;:&quot;elbowEdgeStyle&quot;,&quot;elbow&quot;:&quot;vertical&quot;,&quot;curved&quot;:0,&quot;rounded&quot;:0};size=65;" vertex="1" parent="1">
          <mxGeometry x="232" y="20" width="150" height="2755" as="geometry" />
        </mxCell>
        <mxCell id="7O1hy9oFJUi7Iq8X8UC_-22" value="RSC 处理器" style="shape=umlLifeline;perimeter=lifelinePerimeter;whiteSpace=wrap;container=1;dropTarget=0;collapsible=0;recursiveResize=0;outlineConnect=0;portConstraint=eastwest;newEdgeStyle={&quot;edgeStyle&quot;:&quot;elbowEdgeStyle&quot;,&quot;elbow&quot;:&quot;vertical&quot;,&quot;curved&quot;:0,&quot;rounded&quot;:0};size=65;" vertex="1" parent="1">
          <mxGeometry x="432" y="20" width="150" height="2755" as="geometry" />
        </mxCell>
        <mxCell id="7O1hy9oFJUi7Iq8X8UC_-23" value="" style="points=[];perimeter=orthogonalPerimeter;outlineConnect=0;targetShapes=umlLifeline;portConstraint=eastwest;newEdgeStyle={&quot;edgeStyle&quot;:&quot;elbowEdgeStyle&quot;,&quot;elbow&quot;:&quot;vertical&quot;,&quot;curved&quot;:0,&quot;rounded&quot;:0}" vertex="1" parent="7O1hy9oFJUi7Iq8X8UC_-22">
          <mxGeometry x="70" y="155" width="10" height="392" as="geometry" />
        </mxCell>
        <mxCell id="7O1hy9oFJUi7Iq8X8UC_-24" value="打包优化器" style="shape=umlLifeline;perimeter=lifelinePerimeter;whiteSpace=wrap;container=1;dropTarget=0;collapsible=0;recursiveResize=0;outlineConnect=0;portConstraint=eastwest;newEdgeStyle={&quot;edgeStyle&quot;:&quot;elbowEdgeStyle&quot;,&quot;elbow&quot;:&quot;vertical&quot;,&quot;curved&quot;:0,&quot;rounded&quot;:0};size=65;" vertex="1" parent="1">
          <mxGeometry x="632" y="20" width="150" height="2755" as="geometry" />
        </mxCell>
        <mxCell id="7O1hy9oFJUi7Iq8X8UC_-25" value="" style="points=[];perimeter=orthogonalPerimeter;outlineConnect=0;targetShapes=umlLifeline;portConstraint=eastwest;newEdgeStyle={&quot;edgeStyle&quot;:&quot;elbowEdgeStyle&quot;,&quot;elbow&quot;:&quot;vertical&quot;,&quot;curved&quot;:0,&quot;rounded&quot;:0}" vertex="1" parent="7O1hy9oFJUi7Iq8X8UC_-24">
          <mxGeometry x="70" y="583" width="10" height="578" as="geometry" />
        </mxCell>
        <mxCell id="7O1hy9oFJUi7Iq8X8UC_-26" value="" style="points=[];perimeter=orthogonalPerimeter;outlineConnect=0;targetShapes=umlLifeline;portConstraint=eastwest;newEdgeStyle={&quot;edgeStyle&quot;:&quot;elbowEdgeStyle&quot;,&quot;elbow&quot;:&quot;vertical&quot;,&quot;curved&quot;:0,&quot;rounded&quot;:0}" vertex="1" parent="7O1hy9oFJUi7Iq8X8UC_-24">
          <mxGeometry x="70" y="1541" width="10" height="357" as="geometry" />
        </mxCell>
        <mxCell id="7O1hy9oFJUi7Iq8X8UC_-27" value="CDN 资源" style="shape=umlLifeline;perimeter=lifelinePerimeter;whiteSpace=wrap;container=1;dropTarget=0;collapsible=0;recursiveResize=0;outlineConnect=0;portConstraint=eastwest;newEdgeStyle={&quot;edgeStyle&quot;:&quot;elbowEdgeStyle&quot;,&quot;elbow&quot;:&quot;vertical&quot;,&quot;curved&quot;:0,&quot;rounded&quot;:0};size=65;" vertex="1" parent="1">
          <mxGeometry x="832" y="20" width="150" height="2755" as="geometry" />
        </mxCell>
        <mxCell id="7O1hy9oFJUi7Iq8X8UC_-28" value="缓存系统" style="shape=umlLifeline;perimeter=lifelinePerimeter;whiteSpace=wrap;container=1;dropTarget=0;collapsible=0;recursiveResize=0;outlineConnect=0;portConstraint=eastwest;newEdgeStyle={&quot;edgeStyle&quot;:&quot;elbowEdgeStyle&quot;,&quot;elbow&quot;:&quot;vertical&quot;,&quot;curved&quot;:0,&quot;rounded&quot;:0};size=65;" vertex="1" parent="1">
          <mxGeometry x="1032" y="20" width="150" height="2755" as="geometry" />
        </mxCell>
        <mxCell id="7O1hy9oFJUi7Iq8X8UC_-29" value="" style="points=[];perimeter=orthogonalPerimeter;outlineConnect=0;targetShapes=umlLifeline;portConstraint=eastwest;newEdgeStyle={&quot;edgeStyle&quot;:&quot;elbowEdgeStyle&quot;,&quot;elbow&quot;:&quot;vertical&quot;,&quot;curved&quot;:0,&quot;rounded&quot;:0}" vertex="1" parent="7O1hy9oFJUi7Iq8X8UC_-28">
          <mxGeometry x="70" y="1205" width="10" height="300" as="geometry" />
        </mxCell>
        <mxCell id="7O1hy9oFJUi7Iq8X8UC_-30" value="服务端输出" style="shape=umlLifeline;perimeter=lifelinePerimeter;whiteSpace=wrap;container=1;dropTarget=0;collapsible=0;recursiveResize=0;outlineConnect=0;portConstraint=eastwest;newEdgeStyle={&quot;edgeStyle&quot;:&quot;elbowEdgeStyle&quot;,&quot;elbow&quot;:&quot;vertical&quot;,&quot;curved&quot;:0,&quot;rounded&quot;:0};size=65;" vertex="1" parent="1">
          <mxGeometry x="1232" y="20" width="150" height="2755" as="geometry" />
        </mxCell>
        <mxCell id="7O1hy9oFJUi7Iq8X8UC_-31" value="" style="points=[];perimeter=orthogonalPerimeter;outlineConnect=0;targetShapes=umlLifeline;portConstraint=eastwest;newEdgeStyle={&quot;edgeStyle&quot;:&quot;elbowEdgeStyle&quot;,&quot;elbow&quot;:&quot;vertical&quot;,&quot;curved&quot;:0,&quot;rounded&quot;:0}" vertex="1" parent="7O1hy9oFJUi7Iq8X8UC_-30">
          <mxGeometry x="70" y="1934" width="10" height="409" as="geometry" />
        </mxCell>
        <mxCell id="7O1hy9oFJUi7Iq8X8UC_-32" value="" style="points=[];perimeter=orthogonalPerimeter;outlineConnect=0;targetShapes=umlLifeline;portConstraint=eastwest;newEdgeStyle={&quot;edgeStyle&quot;:&quot;elbowEdgeStyle&quot;,&quot;elbow&quot;:&quot;vertical&quot;,&quot;curved&quot;:0,&quot;rounded&quot;:0}" vertex="1" parent="7O1hy9oFJUi7Iq8X8UC_-30">
          <mxGeometry x="70" y="2349" width="10" height="292" as="geometry" />
        </mxCell>
        <mxCell id="7O1hy9oFJUi7Iq8X8UC_-33" value="next build 启动构建" style="verticalAlign=bottom;edgeStyle=elbowEdgeStyle;elbow=vertical;curved=0;rounded=0;endArrow=block;" edge="1" parent="1" source="7O1hy9oFJUi7Iq8X8UC_-20" target="7O1hy9oFJUi7Iq8X8UC_-21">
          <mxGeometry relative="1" as="geometry">
            <Array as="points">
              <mxPoint x="210" y="129" />
            </Array>
          </mxGeometry>
        </mxCell>
        <mxCell id="7O1hy9oFJUi7Iq8X8UC_-34" value="分析组件类型" style="verticalAlign=bottom;edgeStyle=elbowEdgeStyle;elbow=vertical;curved=0;rounded=0;endArrow=block;" edge="1" parent="1" source="7O1hy9oFJUi7Iq8X8UC_-21" target="7O1hy9oFJUi7Iq8X8UC_-23">
          <mxGeometry relative="1" as="geometry">
            <Array as="points">
              <mxPoint x="416" y="175" />
            </Array>
          </mxGeometry>
        </mxCell>
        <mxCell id="7O1hy9oFJUi7Iq8X8UC_-35" value="识别 Server Components" style="curved=1;endArrow=block;rounded=0;" edge="1" parent="1" source="7O1hy9oFJUi7Iq8X8UC_-23" target="7O1hy9oFJUi7Iq8X8UC_-23">
          <mxGeometry relative="1" as="geometry">
            <Array as="points">
              <mxPoint x="562" y="229" />
              <mxPoint x="562" y="259" />
            </Array>
          </mxGeometry>
        </mxCell>
        <mxCell id="7O1hy9oFJUi7Iq8X8UC_-36" value="识别 Client Components" style="curved=1;endArrow=block;rounded=0;" edge="1" parent="1" source="7O1hy9oFJUi7Iq8X8UC_-23" target="7O1hy9oFJUi7Iq8X8UC_-23">
          <mxGeometry relative="1" as="geometry">
            <Array as="points">
              <mxPoint x="562" y="313" />
              <mxPoint x="562" y="343" />
            </Array>
          </mxGeometry>
        </mxCell>
        <mxCell id="7O1hy9oFJUi7Iq8X8UC_-37" value="处理 use client 指令" style="curved=1;endArrow=block;rounded=0;" edge="1" parent="1" source="7O1hy9oFJUi7Iq8X8UC_-23" target="7O1hy9oFJUi7Iq8X8UC_-23">
          <mxGeometry relative="1" as="geometry">
            <Array as="points">
              <mxPoint x="562" y="397" />
              <mxPoint x="562" y="427" />
            </Array>
          </mxGeometry>
        </mxCell>
        <mxCell id="7O1hy9oFJUi7Iq8X8UC_-38" value="生成 RSC Payload" style="curved=1;endArrow=block;rounded=0;" edge="1" parent="1" source="7O1hy9oFJUi7Iq8X8UC_-23" target="7O1hy9oFJUi7Iq8X8UC_-23">
          <mxGeometry relative="1" as="geometry">
            <Array as="points">
              <mxPoint x="562" y="481" />
              <mxPoint x="562" y="511" />
            </Array>
          </mxGeometry>
        </mxCell>
        <mxCell id="7O1hy9oFJUi7Iq8X8UC_-39" value="返回组件分类结果" style="verticalAlign=bottom;edgeStyle=elbowEdgeStyle;elbow=vertical;curved=0;rounded=0;dashed=1;dashPattern=2 3;endArrow=block;" edge="1" parent="1" source="7O1hy9oFJUi7Iq8X8UC_-23" target="7O1hy9oFJUi7Iq8X8UC_-21">
          <mxGeometry relative="1" as="geometry">
            <Array as="points">
              <mxPoint x="417" y="557" />
            </Array>
          </mxGeometry>
        </mxCell>
        <mxCell id="7O1hy9oFJUi7Iq8X8UC_-40" value="处理静态资源" style="verticalAlign=bottom;edgeStyle=elbowEdgeStyle;elbow=vertical;curved=0;rounded=0;endArrow=block;" edge="1" parent="1" source="7O1hy9oFJUi7Iq8X8UC_-21" target="7O1hy9oFJUi7Iq8X8UC_-25">
          <mxGeometry relative="1" as="geometry">
            <Array as="points">
              <mxPoint x="516" y="603" />
            </Array>
          </mxGeometry>
        </mxCell>
        <mxCell id="7O1hy9oFJUi7Iq8X8UC_-41" value="处理图片资源" style="curved=1;endArrow=block;rounded=0;" edge="1" parent="1" source="7O1hy9oFJUi7Iq8X8UC_-25" target="7O1hy9oFJUi7Iq8X8UC_-25">
          <mxGeometry relative="1" as="geometry">
            <Array as="points">
              <mxPoint x="762" y="649" />
              <mxPoint x="762" y="679" />
            </Array>
          </mxGeometry>
        </mxCell>
        <mxCell id="7O1hy9oFJUi7Iq8X8UC_-42" value="处理样式文件" style="curved=1;endArrow=block;rounded=0;" edge="1" parent="1" source="7O1hy9oFJUi7Iq8X8UC_-25" target="7O1hy9oFJUi7Iq8X8UC_-25">
          <mxGeometry relative="1" as="geometry">
            <Array as="points">
              <mxPoint x="762" y="774" />
              <mxPoint x="762" y="804" />
            </Array>
          </mxGeometry>
        </mxCell>
        <mxCell id="7O1hy9oFJUi7Iq8X8UC_-43" value="处理字体文件" style="curved=1;endArrow=block;rounded=0;" edge="1" parent="1" source="7O1hy9oFJUi7Iq8X8UC_-25" target="7O1hy9oFJUi7Iq8X8UC_-25">
          <mxGeometry relative="1" as="geometry">
            <Array as="points">
              <mxPoint x="762" y="899" />
              <mxPoint x="762" y="929" />
            </Array>
          </mxGeometry>
        </mxCell>
        <mxCell id="7O1hy9oFJUi7Iq8X8UC_-44" value="上传静态资源" style="verticalAlign=bottom;edgeStyle=elbowEdgeStyle;elbow=vertical;curved=0;rounded=0;dashed=1;dashPattern=2 3;endArrow=block;" edge="1" parent="1" source="7O1hy9oFJUi7Iq8X8UC_-25" target="7O1hy9oFJUi7Iq8X8UC_-27">
          <mxGeometry relative="1" as="geometry">
            <Array as="points">
              <mxPoint x="818" y="1024" />
            </Array>
          </mxGeometry>
        </mxCell>
        <mxCell id="7O1hy9oFJUi7Iq8X8UC_-45" value="配置 ISR" style="verticalAlign=bottom;edgeStyle=elbowEdgeStyle;elbow=vertical;curved=0;rounded=0;endArrow=block;" edge="1" parent="1" source="7O1hy9oFJUi7Iq8X8UC_-21" target="7O1hy9oFJUi7Iq8X8UC_-29">
          <mxGeometry relative="1" as="geometry">
            <Array as="points">
              <mxPoint x="716" y="1225" />
            </Array>
          </mxGeometry>
        </mxCell>
        <mxCell id="7O1hy9oFJUi7Iq8X8UC_-46" value="解析 revalidate" style="curved=1;endArrow=block;rounded=0;" edge="1" parent="1" source="7O1hy9oFJUi7Iq8X8UC_-29" target="7O1hy9oFJUi7Iq8X8UC_-29">
          <mxGeometry relative="1" as="geometry">
            <Array as="points">
              <mxPoint x="1162" y="1279" />
              <mxPoint x="1162" y="1309" />
            </Array>
          </mxGeometry>
        </mxCell>
        <mxCell id="7O1hy9oFJUi7Iq8X8UC_-47" value="生成静态页面" style="curved=1;endArrow=block;rounded=0;" edge="1" parent="1" source="7O1hy9oFJUi7Iq8X8UC_-29" target="7O1hy9oFJUi7Iq8X8UC_-29">
          <mxGeometry relative="1" as="geometry">
            <Array as="points">
              <mxPoint x="1162" y="1355" />
              <mxPoint x="1162" y="1385" />
            </Array>
          </mxGeometry>
        </mxCell>
        <mxCell id="7O1hy9oFJUi7Iq8X8UC_-48" value="设置缓存策略" style="curved=1;endArrow=block;rounded=0;" edge="1" parent="1" source="7O1hy9oFJUi7Iq8X8UC_-29" target="7O1hy9oFJUi7Iq8X8UC_-29">
          <mxGeometry relative="1" as="geometry">
            <Array as="points">
              <mxPoint x="1162" y="1431" />
              <mxPoint x="1162" y="1461" />
            </Array>
          </mxGeometry>
        </mxCell>
        <mxCell id="7O1hy9oFJUi7Iq8X8UC_-49" value="输出 ISR 配置" style="verticalAlign=bottom;edgeStyle=elbowEdgeStyle;elbow=vertical;curved=0;rounded=0;dashed=1;dashPattern=2 3;endArrow=block;" edge="1" parent="1" source="7O1hy9oFJUi7Iq8X8UC_-29" target="7O1hy9oFJUi7Iq8X8UC_-30">
          <mxGeometry relative="1" as="geometry">
            <Array as="points">
              <mxPoint x="1218" y="1515" />
            </Array>
          </mxGeometry>
        </mxCell>
        <mxCell id="7O1hy9oFJUi7Iq8X8UC_-50" value="处理客户端代码" style="verticalAlign=bottom;edgeStyle=elbowEdgeStyle;elbow=vertical;curved=0;rounded=0;endArrow=block;" edge="1" parent="1" source="7O1hy9oFJUi7Iq8X8UC_-21" target="7O1hy9oFJUi7Iq8X8UC_-26">
          <mxGeometry relative="1" as="geometry">
            <Array as="points">
              <mxPoint x="516" y="1561" />
            </Array>
          </mxGeometry>
        </mxCell>
        <mxCell id="7O1hy9oFJUi7Iq8X8UC_-51" value="Tree Shaking" style="curved=1;endArrow=block;rounded=0;" edge="1" parent="1" source="7O1hy9oFJUi7Iq8X8UC_-26" target="7O1hy9oFJUi7Iq8X8UC_-26">
          <mxGeometry relative="1" as="geometry">
            <Array as="points">
              <mxPoint x="762" y="1615" />
              <mxPoint x="762" y="1645" />
            </Array>
          </mxGeometry>
        </mxCell>
        <mxCell id="7O1hy9oFJUi7Iq8X8UC_-52" value="Code Splitting" style="curved=1;endArrow=block;rounded=0;" edge="1" parent="1" source="7O1hy9oFJUi7Iq8X8UC_-26" target="7O1hy9oFJUi7Iq8X8UC_-26">
          <mxGeometry relative="1" as="geometry">
            <Array as="points">
              <mxPoint x="762" y="1699" />
              <mxPoint x="762" y="1729" />
            </Array>
          </mxGeometry>
        </mxCell>
        <mxCell id="7O1hy9oFJUi7Iq8X8UC_-53" value="模块优化" style="curved=1;endArrow=block;rounded=0;" edge="1" parent="1" source="7O1hy9oFJUi7Iq8X8UC_-26" target="7O1hy9oFJUi7Iq8X8UC_-26">
          <mxGeometry relative="1" as="geometry">
            <Array as="points">
              <mxPoint x="762" y="1775" />
              <mxPoint x="762" y="1805" />
            </Array>
          </mxGeometry>
        </mxCell>
        <mxCell id="7O1hy9oFJUi7Iq8X8UC_-54" value="上传 JS chunks" style="verticalAlign=bottom;edgeStyle=elbowEdgeStyle;elbow=vertical;curved=0;rounded=0;dashed=1;dashPattern=2 3;endArrow=block;" edge="1" parent="1" source="7O1hy9oFJUi7Iq8X8UC_-26" target="7O1hy9oFJUi7Iq8X8UC_-27">
          <mxGeometry relative="1" as="geometry">
            <Array as="points">
              <mxPoint x="818" y="1859" />
            </Array>
          </mxGeometry>
        </mxCell>
        <mxCell id="7O1hy9oFJUi7Iq8X8UC_-55" value="处理服务端代码" style="verticalAlign=bottom;edgeStyle=elbowEdgeStyle;elbow=vertical;curved=0;rounded=0;endArrow=block;" edge="1" parent="1" source="7O1hy9oFJUi7Iq8X8UC_-21" target="7O1hy9oFJUi7Iq8X8UC_-31">
          <mxGeometry relative="1" as="geometry">
            <Array as="points">
              <mxPoint x="816" y="1954" />
            </Array>
          </mxGeometry>
        </mxCell>
        <mxCell id="7O1hy9oFJUi7Iq8X8UC_-56" value="生成路由表" style="curved=1;endArrow=block;rounded=0;" edge="1" parent="1" source="7O1hy9oFJUi7Iq8X8UC_-31" target="7O1hy9oFJUi7Iq8X8UC_-31">
          <mxGeometry relative="1" as="geometry">
            <Array as="points">
              <mxPoint x="1362" y="2000" />
              <mxPoint x="1362" y="2030" />
            </Array>
          </mxGeometry>
        </mxCell>
        <mxCell id="7O1hy9oFJUi7Iq8X8UC_-57" value="处理中间件" style="curved=1;endArrow=block;rounded=0;" edge="1" parent="1" source="7O1hy9oFJUi7Iq8X8UC_-31" target="7O1hy9oFJUi7Iq8X8UC_-31">
          <mxGeometry relative="1" as="geometry">
            <Array as="points">
              <mxPoint x="1362" y="2076" />
              <mxPoint x="1362" y="2106" />
            </Array>
          </mxGeometry>
        </mxCell>
        <mxCell id="7O1hy9oFJUi7Iq8X8UC_-58" value="生成 Server Entry" style="curved=1;endArrow=block;rounded=0;" edge="1" parent="1" source="7O1hy9oFJUi7Iq8X8UC_-31" target="7O1hy9oFJUi7Iq8X8UC_-31">
          <mxGeometry relative="1" as="geometry">
            <Array as="points">
              <mxPoint x="1362" y="2160" />
              <mxPoint x="1362" y="2190" />
            </Array>
          </mxGeometry>
        </mxCell>
        <mxCell id="7O1hy9oFJUi7Iq8X8UC_-59" value="生成 ISR 降级页" style="curved=1;endArrow=block;rounded=0;" edge="1" parent="1" source="7O1hy9oFJUi7Iq8X8UC_-31" target="7O1hy9oFJUi7Iq8X8UC_-31">
          <mxGeometry relative="1" as="geometry">
            <Array as="points">
              <mxPoint x="1362" y="2293" />
              <mxPoint x="1362" y="2323" />
            </Array>
          </mxGeometry>
        </mxCell>
        <mxCell id="7O1hy9oFJUi7Iq8X8UC_-60" value="生成构建清单" style="verticalAlign=bottom;edgeStyle=elbowEdgeStyle;elbow=vertical;curved=0;rounded=0;endArrow=block;" edge="1" parent="1" source="7O1hy9oFJUi7Iq8X8UC_-21" target="7O1hy9oFJUi7Iq8X8UC_-32">
          <mxGeometry relative="1" as="geometry">
            <Array as="points">
              <mxPoint x="816" y="2369" />
            </Array>
          </mxGeometry>
        </mxCell>
        <mxCell id="7O1hy9oFJUi7Iq8X8UC_-61" value="生成 build-manifest" style="curved=1;endArrow=block;rounded=0;" edge="1" parent="1" source="7O1hy9oFJUi7Iq8X8UC_-32" target="7O1hy9oFJUi7Iq8X8UC_-32">
          <mxGeometry relative="1" as="geometry">
            <Array as="points">
              <mxPoint x="1362" y="2423" />
              <mxPoint x="1362" y="2453" />
            </Array>
          </mxGeometry>
        </mxCell>
        <mxCell id="7O1hy9oFJUi7Iq8X8UC_-62" value="生成 prerender-manifest" style="curved=1;endArrow=block;rounded=0;" edge="1" parent="1" source="7O1hy9oFJUi7Iq8X8UC_-32" target="7O1hy9oFJUi7Iq8X8UC_-32">
          <mxGeometry relative="1" as="geometry">
            <Array as="points">
              <mxPoint x="1362" y="2507" />
              <mxPoint x="1362" y="2537" />
            </Array>
          </mxGeometry>
        </mxCell>
        <mxCell id="7O1hy9oFJUi7Iq8X8UC_-63" value="生成 routes-manifest" style="curved=1;endArrow=block;rounded=0;" edge="1" parent="1" source="7O1hy9oFJUi7Iq8X8UC_-32" target="7O1hy9oFJUi7Iq8X8UC_-32">
          <mxGeometry relative="1" as="geometry">
            <Array as="points">
              <mxPoint x="1362" y="2591" />
              <mxPoint x="1362" y="2621" />
            </Array>
          </mxGeometry>
        </mxCell>
        <mxCell id="7O1hy9oFJUi7Iq8X8UC_-64" value="压缩优化/生成多尺寸" style="fillColor=#ffff88;strokeColor=#9E916F;" vertex="1" parent="1">
          <mxGeometry x="621" y="699" width="172" height="49" as="geometry" />
        </mxCell>
        <mxCell id="7O1hy9oFJUi7Iq8X8UC_-65" value="CSS 提取/压缩/前缀" style="fillColor=#ffff88;strokeColor=#9E916F;" vertex="1" parent="1">
          <mxGeometry x="623" y="824" width="169" height="49" as="geometry" />
        </mxCell>
        <mxCell id="7O1hy9oFJUi7Iq8X8UC_-66" value="字体优化/subset" style="fillColor=#ffff88;strokeColor=#9E916F;" vertex="1" parent="1">
          <mxGeometry x="632" y="949" width="150" height="49" as="geometry" />
        </mxCell>
        <mxCell id="7O1hy9oFJUi7Iq8X8UC_-67" value="/_next/static/media" style="fillColor=#ffff88;strokeColor=#9E916F;" vertex="1" parent="1">
          <mxGeometry x="822" y="1044" width="170" height="49" as="geometry" />
        </mxCell>
        <mxCell id="7O1hy9oFJUi7Iq8X8UC_-68" value="/_next/static/css" style="fillColor=#ffff88;strokeColor=#9E916F;" vertex="1" parent="1">
          <mxGeometry x="832" y="1093" width="150" height="49" as="geometry" />
        </mxCell>
        <mxCell id="7O1hy9oFJUi7Iq8X8UC_-69" value="/_next/static/fonts" style="fillColor=#ffff88;strokeColor=#9E916F;" vertex="1" parent="1">
          <mxGeometry x="826" y="1142" width="163" height="49" as="geometry" />
        </mxCell>
        <mxCell id="7O1hy9oFJUi7Iq8X8UC_-70" value="/_next/static/chunks" style="fillColor=#ffff88;strokeColor=#9E916F;" vertex="1" parent="1">
          <mxGeometry x="819" y="1879" width="177" height="49" as="geometry" />
        </mxCell>
        <mxCell id="7O1hy9oFJUi7Iq8X8UC_-71" value=".next/server" style="fillColor=#ffff88;strokeColor=#9E916F;" vertex="1" parent="1">
          <mxGeometry x="1232" y="2210" width="150" height="49" as="geometry" />
        </mxCell>
        <mxCell id="7O1hy9oFJUi7Iq8X8UC_-72" value="完成构建" style="fillColor=#ffff88;strokeColor=#9E916F;" vertex="1" parent="1">
          <mxGeometry x="232" y="2641" width="150" height="49" as="geometry" />
        </mxCell>
      </root>
    </mxGraphModel>
  </diagram>
</mxfile>
